<svg width="97" height="15" viewBox="0 0 97 15" fill="none" xmlns="http://www.w3.org/2000/svg">
<rect x="1.5" y="1.5108" width="16" height="11" stroke="black" stroke-width="3"/>
<path d="M29.1306 13.7998L25 0.218851H27.3331L30.2564 10.593L33.4247 0.218851H35.6247L38.79 10.593L41.689 0.218851H44.0766L39.9188 13.7998H37.6915L34.5262 3.4773L31.3609 13.7998H29.1306Z" fill="black"/>
<path d="M58.5112 6.38923C58.5112 6.76614 58.4931 7.1157 58.4567 7.44093H47.7776C47.8502 8.80571 48.2829 9.90605 49.0788 10.7419C49.8747 11.5778 50.8793 11.9943 52.0958 11.9943C53.1338 11.9943 53.9902 11.7602 54.6711 11.2951C55.3519 10.827 55.7877 10.1735 55.9844 9.32852L58.1299 9.83918C57.791 11.1523 57.0889 12.1736 56.0237 12.9122C54.9585 13.6478 53.6482 14.0156 52.0928 14.0156C50.1077 14.0156 48.5099 13.3408 47.3025 11.9943C46.0951 10.6477 45.4929 8.98505 45.4929 7.00931C45.4929 5.03357 46.086 3.34964 47.2783 2.00917C48.4675 0.671751 50.0562 0 52.0414 0C54.0265 0 55.5547 0.617038 56.7379 1.84504C57.9181 3.07607 58.5082 4.58979 58.5082 6.38619L58.5112 6.38923ZM56.0964 5.52903C55.9905 4.44997 55.5789 3.58065 54.8617 2.91497C54.1445 2.2493 53.2064 1.91799 52.0444 1.91799C50.9883 1.91799 50.0956 2.23714 49.3602 2.87546C48.6279 3.51377 48.1437 4.3983 47.9107 5.52903H56.0964Z" fill="black"/>
<path d="M67.3656 14.0156C65.3623 14.0156 63.7434 13.3742 62.5087 12.0885C61.2741 10.8027 60.6567 9.10967 60.6567 7.00931C60.6567 4.90895 61.2741 3.21285 62.5087 1.93014C63.7434 0.644395 65.3623 0.0030396 67.3656 0.0030396C68.9392 0.0030396 70.2586 0.404266 71.3238 1.20368C72.389 2.00309 73.0456 3.07607 73.2968 4.42261L71.0424 4.88159C70.9001 4.05482 70.4977 3.37699 69.8349 2.8481C69.1722 2.31921 68.3673 2.05173 67.4201 2.05173C66.0947 2.05173 65.0355 2.50463 64.2397 3.41347C63.4438 4.32231 63.0443 5.51991 63.0443 7.01235C63.0443 8.50479 63.4408 9.7024 64.2397 10.6112C65.0355 11.5201 66.0947 11.973 67.4201 11.973C68.3854 11.973 69.1964 11.7207 69.847 11.2192C70.5007 10.7176 70.9153 10.0155 71.0938 9.11575L73.321 9.57473C73.0335 10.976 72.3587 12.0672 71.2966 12.8484C70.2344 13.6296 68.9211 14.0217 67.3656 14.0217V14.0156Z" fill="black"/>
<path d="M84.0789 2.45599C83.5765 2.24018 82.9955 2.1338 82.3358 2.1338C81.192 2.1338 80.2569 2.687 79.5306 3.79038C78.8074 4.89679 78.4442 6.50778 78.4442 8.62638V13.7998H76.1626V0.218851H78.4442V2.96665C78.8376 2.1034 79.4277 1.39518 80.2145 0.838929C81.0013 0.282683 81.8153 0.0030396 82.6566 0.0030396C83.2467 0.0030396 83.7642 0.0851087 84.212 0.246207L84.0789 2.45599Z" fill="black"/>
<path d="M91.0026 0.0030396C92.667 0.0030396 94.0076 0.462019 95.0274 1.37694C96.0472 2.29186 96.5556 3.53201 96.5556 5.09437V13.7998H94.3011V11.4836C93.9077 12.2557 93.3025 12.8727 92.4885 13.3286C91.6744 13.7876 90.7757 14.0156 89.7922 14.0156C88.4516 14.0156 87.3562 13.6417 86.5058 12.897C85.6555 12.1523 85.2318 11.1857 85.2318 10.0003C85.2318 7.45005 87.3773 5.95761 91.6714 5.52599L94.3011 5.22811V4.95758C94.3011 4.02443 94.0015 3.28277 93.4023 2.73564C92.8032 2.18851 92.0043 1.91495 91.0026 1.91495C90.0736 1.91495 89.302 2.17635 88.6967 2.69612C88.0885 3.21589 87.7405 3.93628 87.6497 4.8512L85.5314 4.44693C85.7281 3.10039 86.3303 2.02133 87.341 1.2128C88.3518 0.404266 89.5713 0 91.0026 0V0.0030396ZM90.1432 12.131C91.4475 12.131 92.4673 11.7268 93.2026 10.9182C93.9349 10.1097 94.3041 9.02152 94.3041 7.65675V7.00931L91.6744 7.30719C88.9025 7.61419 87.5165 8.50175 87.5165 9.97596C87.5165 10.6052 87.7617 11.1219 88.2549 11.5262C88.7451 11.9304 89.3776 12.1341 90.1462 12.1341L90.1432 12.131Z" fill="black"/>
</svg>
