<?xml version="1.0" encoding="UTF-8"?>
<svg id="katman_1" xmlns="http://www.w3.org/2000/svg" version="1.1" viewBox="0 0 439.7 906">
  <!-- Generator: Adobe Illustrator 30.1.0, SVG Export Plug-In . SVG Version: 2.1.1 Build 136)  -->
  <defs>
    <style>
      .st0 {
        fill: black;
      }
    </style>
  </defs>
  <path class="st0" d="M438.3,265.7h0c-.8,0-1.4-.6-1.4-1.4v-7.6h0V76c0-42-34-76-76-76H78.8C36.9,0,2.8,34,2.8,76v108.3c0,.8-.6,1.4-1.4,1.4s-1.4.6-1.4,1.4v38.8c0,.8.6,1.4,1.4,1.4s1.4.6,1.4,1.4v19.8c0,.8-.6,1.4-1.4,1.4s-1.4.6-1.4,1.4v64.8c0,.8.6,1.4,1.4,1.4s1.4.6,1.4,1.4v15.3c0,.8-.6,1.4-1.4,1.4s-1.4.6-1.4,1.4v64.8c0,.8.6,1.4,1.4,1.4s1.4.6,1.4,1.4v425.3c0,42,34,76,76,76h282c42,0,76-34,76-76v-417.6h0v-7.6c0-.8.6-1.4,1.4-1.4h0c.8,0,1.4-.6,1.4-1.4v-134.8c0-.8-.6-1.4-1.4-1.4ZM425.5,828.2c0,36.7-29.8,66.5-66.5,66.5H80.6c-36.7,0-66.5-29.8-66.5-66.5V77.8C14.2,41.1,43.9,11.3,80.6,11.3h278.4c36.7,0,66.5,29.8,66.5,66.5v750.4Z"/>
</svg>