<?xml version="1.0" encoding="UTF-8"?>
<svg id="katman_2" xmlns="http://www.w3.org/2000/svg" viewBox="0 0 481.4 159.6">
  <defs>
    <style>
      .cls-1 {
        fill: #fff;
      }
    </style>
  </defs>
  <g id="katman_1">
    <g>
      <path class="cls-1" d="M0,70.35h30.02c.3,4.93,3.73,9.26,15.98,9.26h59.75c8.96,0,12.85-3.43,12.85-7.47s-3.88-6.42-10.46-6.42H34.21v-23.15h70.95c6.57,0,10.46-2.24,10.46-6.57,0-3.88-3.29-7.32-11.5-7.47h-60.49c-9.26,0-12.7,4.48-12.7,9.26H.9C.9,19.27,11.2,0,44.36,0h59.75c34.35,0,44.96,16.28,44.96,32.26,0,7.62-2.99,14.64-10.31,19.42,8.07,4.18,13.3,11.2,13.3,21.81,0,18.37-12.7,34.65-46.3,34.65h-59.75C5.23,108.14,0,80.51,0,70.35Z"/>
      <path class="cls-1" d="M166.99,70.35h33.01c.3,4.93,3.73,9.26,12.84,9.26h59.75c8.81,0,13-3.14,13.15-8.51,0-3.88-3.74-7.47-12.1-7.47h-106.05l4.63-61.84h141.75v28.83h-113.37l-.45,7.47h77.22c30.02,0,41.82,15.38,41.82,33.01h-.15c0,17.77-10.46,37.04-46.45,37.04h-59.75c-40.63,0-45.86-27.63-45.86-37.79Z"/>
      <path class="cls-1" d="M331.14,68.11c0-11.95,4.48-24.5,17.03-31.96L402.09,1.79h47.65l-41.67,27.78h28.08c34.35,0,45.26,20.02,45.26,38.54s-10.9,40.03-45.26,40.03h-59.75c-34.35,0-45.26-21.51-45.26-40.03ZM436.15,79.61c8.21,0,11.8-5.82,11.8-11.5s-3.59-11.5-11.8-11.5h-59.75c-8.22,0-11.8,5.82-11.8,11.5s3.58,11.5,11.8,11.5h59.75Z"/>
    </g>
    <g>
      <path class="cls-1" d="M157.05,144.15c0,9.22-7.08,14.94-16.43,14.94h-30.22v-29.88h30.22c9.35,0,16.43,5.68,16.43,14.94ZM147.49,144.15c0-3.84-2.9-6.74-6.87-6.74h-20.87v13.49h20.87c3.97-.09,6.87-2.94,6.87-6.74Z"/>
      <path class="cls-1" d="M219.79,145.47c0,9.39-5.59,14.13-14.72,14.13h-17.07c-9.13,0-14.72-4.44-14.72-14.13h9.39c0,3.16,1.41,5.76,5.34,5.76h17.07c3.97,0,5.33-2.6,5.33-5.76v-8.07h-33.16v-8.19h42.55v16.26Z"/>
      <g>
        <rect class="cls-1" x="224.06" y="129.21" width="9.39" height="8.24"/>
        <rect class="cls-1" x="224.06" y="139.76" width="9.39" height="19.33"/>
      </g>
      <g>
        <rect class="cls-1" x="160.45" y="129.21" width="9.39" height="8.24"/>
        <rect class="cls-1" x="160.45" y="139.76" width="9.39" height="19.33"/>
      </g>
      <path class="cls-1" d="M284.06,137.45h-18.48v21.64h-9.39v-21.64h-18.48v-8.24h46.35v8.24Z"/>
      <path class="cls-1" d="M321.96,154.35h-28.47l-1.24,4.74h-9.47l7.9-29.88h34.14l7.9,29.88h-9.52l-1.24-4.74ZM319.79,146.03l-2.22-8.58h-19.72l-2.22,8.58h24.16Z"/>
      <path class="cls-1" d="M375.78,150.85v8.24h-40.5v-29.88h9.39v21.64h31.11Z"/>
    </g>
  </g>
</svg>