<?xml version="1.0" standalone="no"?>
<!DOCTYPE svg PUBLIC "-//W3C//DTD SVG 20010904//EN"
 "http://www.w3.org/TR/2001/REC-SVG-20010904/DTD/svg10.dtd">
<svg version="1.0" xmlns="http://www.w3.org/2000/svg"
 width="1025.000000pt" height="589.000000pt" viewBox="0 0 1025.000000 589.000000"
 preserveAspectRatio="xMidYMid meet">

<g transform="translate(0.000000,589.000000) scale(0.100000,-0.100000)"
fill="#000000" stroke="none">
<path d="M4565 5121 c-22 -10 -62 -42 -88 -71 -144 -160 -333 -610 -416 -987
-17 -78 -34 -149 -38 -159 -5 -14 -3 -16 13 -9 273 120 899 190 1374 155 292
-22 556 -66 715 -120 49 -16 91 -28 93 -25 7 7 -56 276 -95 404 -97 316 -288
701 -384 773 -96 72 -162 75 -301 13 -191 -85 -228 -97 -307 -98 -85 0 -148
17 -252 69 -147 73 -239 89 -314 55z"/>
<path d="M3187 4056 c-114 -42 -160 -109 -165 -241 -15 -349 311 -807 740
-1042 88 -48 219 -102 281 -117 l27 -6 -2 435 c-2 239 0 435 4 435 4 0 49 -11
100 -25 255 -69 536 -98 943 -99 402 -1 671 27 953 98 55 14 102 26 104 26 2
0 2 -192 0 -427 -1 -235 1 -430 5 -434 13 -12 149 36 257 91 281 141 559 414
687 672 152 304 141 536 -28 619 -40 19 -63 23 -138 23 -110 -1 -187 -25 -373
-118 -158 -79 -187 -88 -397 -125 -620 -110 -1534 -108 -2130 5 -71 13 -154
28 -183 34 -29 5 -119 42 -205 84 -83 41 -183 84 -222 96 -92 28 -208 35 -258
16z"/>
<path d="M4765 2852 c-28 -10 -70 -29 -95 -44 -43 -25 -74 -51 -256 -211 -106
-93 -169 -122 -260 -122 -86 0 -86 -3 11 -93 73 -69 151 -113 242 -136 71 -19
256 -21 335 -5 85 17 245 100 313 162 l60 54 65 -54 c77 -65 219 -136 313
-158 81 -19 264 -21 333 -4 116 28 211 90 294 189 l44 52 -40 -6 c-89 -15
-194 36 -349 170 -127 110 -180 148 -261 186 -64 30 -77 33 -169 33 -89 0
-106 -3 -151 -27 -27 -14 -56 -33 -63 -42 -11 -14 -17 -12 -49 13 -76 60 -214
79 -317 43z"/>
<path d="M2097 1719 c18 -26 33 -54 33 -64 0 -24 -327 -1111 -347 -1153 -9
-18 -33 -48 -54 -66 -22 -18 -39 -36 -39 -39 0 -4 95 -7 210 -7 l211 0 -26 37
c-32 47 -32 91 -1 203 l23 85 180 3 180 2 31 -112 32 -112 -30 -49 c-16 -27
-30 -50 -30 -52 0 -3 128 -6 285 -7 157 -2 285 -1 285 3 0 3 -16 21 -36 40
-20 18 -42 45 -49 59 -7 14 -77 243 -155 510 -78 267 -161 548 -184 625 l-42
140 -255 0 -255 0 33 -46z m238 -496 c24 -92 53 -201 64 -240 l20 -73 -130 0
c-71 0 -129 3 -129 8 0 4 27 106 60 227 33 121 60 229 60 239 0 41 14 1 55
-161z"/>
<path d="M8943 1760 c1 -3 14 -27 28 -55 l26 -50 -118 -390 c-256 -843 -228
-762 -283 -822 l-48 -53 211 0 210 0 -25 37 c-37 56 -38 73 -7 185 l28 103
181 3 181 2 27 -102 c28 -111 31 -129 18 -143 -5 -6 -19 -27 -31 -47 l-23 -38
293 0 292 0 -49 53 c-58 61 -34 -9 -258 762 l-162 560 -247 0 c-136 0 -246 -2
-244 -5z m284 -667 l49 -183 -133 0 c-74 0 -132 4 -129 8 5 9 83 292 112 407
l18 70 17 -60 c10 -33 40 -142 66 -242z"/>
<path d="M389 1742 c5 -10 17 -25 26 -32 45 -37 45 -38 45 -635 0 -597 0 -598
-45 -635 -9 -7 -21 -22 -26 -32 -9 -17 2 -18 283 -18 l292 0 -31 33 c-63 68
-63 66 -63 259 0 176 0 179 27 219 14 22 30 36 34 32 4 -4 55 -101 113 -214
117 -227 151 -280 199 -309 29 -18 51 -20 235 -20 111 0 202 2 202 5 0 2 -21
23 -46 47 -25 23 -61 69 -81 102 -38 65 -351 658 -355 675 -3 10 269 383 350
479 l53 62 -241 0 -241 0 35 -52 c35 -51 35 -51 18 -84 -22 -43 -296 -463
-302 -463 -3 -1 -3 114 0 254 l5 254 45 46 44 45 -292 0 c-281 0 -292 -1 -283
-18z"/>
<path d="M3140 1708 l40 -53 0 -577 0 -576 -46 -56 -45 -56 292 0 293 0 -35
38 c-71 74 -69 66 -69 294 l0 208 200 0 200 0 0 115 0 115 -200 0 -200 0 0
185 0 185 173 0 c188 0 188 0 280 -72 l37 -30 0 166 0 166 -480 0 -480 0 40
-52z"/>
<path d="M4184 1717 c19 -23 40 -55 45 -70 7 -18 11 -181 11 -461 0 -461 2
-481 52 -580 25 -49 101 -131 150 -162 120 -76 340 -105 496 -66 196 50 328
183 361 366 7 37 11 225 11 493 l0 433 41 45 42 45 -212 0 -211 0 35 -51 35
-51 0 -432 c0 -464 -3 -493 -52 -566 -67 -98 -235 -96 -297 4 -48 77 -52 125
-49 574 l3 420 43 51 43 51 -291 0 -291 0 35 -43z"/>
<path d="M5539 1703 l41 -56 0 -573 0 -573 -45 -55 -45 -55 290 -3 c160 -2
290 0 290 3 0 4 -8 13 -17 20 -9 8 -29 34 -45 58 l-28 45 0 193 0 193 39 0
c22 0 41 -6 44 -12 180 -436 189 -452 250 -482 29 -13 71 -16 246 -16 132 0
211 4 211 10 0 5 -17 21 -38 34 -21 13 -50 40 -66 60 -24 32 -257 517 -256
534 1 4 23 18 51 31 27 14 70 46 95 73 89 95 121 215 90 336 -36 140 -135 227
-314 273 -68 17 -112 19 -454 19 l-379 0 40 -57z m593 -155 c89 -27 139 -133
119 -256 -21 -130 -80 -181 -213 -182 l-58 0 0 225 0 225 56 0 c31 0 74 -5 96
-12z"/>
<path d="M6930 1728 c11 -18 30 -51 42 -74 l20 -41 -26 -354 c-14 -195 -30
-424 -36 -509 -18 -271 -15 -258 -72 -312 l-50 -48 217 0 216 0 -19 28 c-11
15 -29 36 -41 46 -27 25 -28 93 -1 441 11 143 20 273 20 289 0 16 2 27 5 24
10 -10 256 -742 263 -783 l8 -40 107 -3 c93 -2 107 -1 107 13 0 9 21 76 46
148 25 73 88 255 139 404 l93 273 7 -63 c13 -135 45 -585 45 -637 0 -50 -4
-59 -39 -97 -21 -23 -38 -43 -36 -45 2 -2 126 -2 275 0 l272 3 -44 47 c-53 56
-45 6 -83 537 -14 193 -30 402 -35 465 -17 202 -15 234 20 273 17 19 30 37 30
41 0 3 -103 6 -229 6 l-228 0 -67 -182 c-36 -101 -95 -264 -130 -363 -47 -132
-66 -175 -71 -160 -22 60 -237 617 -254 658 l-20 47 -237 0 -236 0 22 -32z"/>
</g>
</svg>
