<?xml version="1.0" encoding="UTF-8"?>
<svg id="katman_1" xmlns="http://www.w3.org/2000/svg" version="1.1" viewBox="0 0 612.6 106.42">
  <!-- Generator: Adobe Illustrator 29.6.0, SVG Export Plug-In . SVG Version: 2.1.1 Build 142)  -->
  <defs>
    <style>
      .st0 {
        fill: #00b3d7;
      }

      .st1 {
        fill: #222651;
      }
    </style>
  </defs>
  <g>
    <path class="st1" d="M138.45,39.55c-1.39-1.77-3.22-3.19-5.47-4.23-2.25-1.05-4.42-1.57-6.51-1.57-1.08,0-2.17.09-3.28.28-1.11.19-2.11.56-2.99,1.09-.89.54-1.63,1.24-2.23,2.09-.6.86-.9,1.95-.9,3.28,0,1.14.24,2.09.71,2.85.48.76,1.17,1.43,2.09,2,.92.57,2.01,1.09,3.28,1.57,1.27.48,2.69.97,4.28,1.47,2.28.76,4.66,1.6,7.13,2.52,2.47.92,4.72,2.14,6.75,3.66,2.03,1.52,3.71,3.41,5.04,5.66,1.33,2.25,2,5.06,2,8.41,0,3.87-.71,7.21-2.14,10.03-1.43,2.82-3.34,5.15-5.75,6.99-2.41,1.84-5.17,3.2-8.27,4.09-3.11.89-6.31,1.33-9.6,1.33-4.82,0-9.48-.84-13.98-2.52-4.5-1.68-8.24-4.07-11.22-7.18l10.65-10.84c1.65,2.03,3.82,3.72,6.51,5.09,2.69,1.36,5.37,2.04,8.03,2.04,1.2,0,2.38-.13,3.52-.38,1.14-.25,2.14-.67,2.99-1.24.86-.57,1.54-1.33,2.04-2.28.51-.95.76-2.09.76-3.42s-.32-2.34-.95-3.23c-.63-.89-1.54-1.7-2.71-2.42-1.17-.73-2.63-1.39-4.37-2-1.74-.6-3.72-1.25-5.94-1.95-2.16-.7-4.26-1.52-6.32-2.47-2.06-.95-3.9-2.17-5.51-3.66-1.62-1.49-2.92-3.29-3.9-5.42-.98-2.12-1.47-4.71-1.47-7.75,0-3.74.76-6.94,2.28-9.6,1.52-2.66,3.52-4.85,5.99-6.56,2.47-1.71,5.26-2.96,8.37-3.76,3.11-.79,6.24-1.19,9.41-1.19,3.8,0,7.68.7,11.65,2.09,3.96,1.4,7.43,3.46,10.41,6.18l-10.36,10.93Z"/>
    <path class="st1" d="M159.08,89.37V22.05h45.26v13.69h-29.57v12.74h27.95v13.03h-27.95v13.98h31.28v13.88h-46.97Z"/>
    <path class="st1" d="M286.95,55.42c0,5.32-.92,10.19-2.76,14.59-1.84,4.41-4.39,8.18-7.65,11.31-3.26,3.14-7.15,5.56-11.65,7.27-4.5,1.71-9.38,2.57-14.64,2.57s-10.13-.86-14.59-2.57c-4.47-1.71-8.34-4.14-11.6-7.27-3.27-3.14-5.82-6.91-7.65-11.31-1.84-4.4-2.76-9.27-2.76-14.59s.92-10.25,2.76-14.59c1.84-4.34,4.39-8.03,7.65-11.08,3.26-3.04,7.13-5.39,11.6-7.04,4.47-1.65,9.33-2.47,14.59-2.47s10.14.82,14.64,2.47c4.5,1.65,8.38,3.99,11.65,7.04,3.26,3.04,5.81,6.74,7.65,11.08,1.84,4.34,2.76,9.21,2.76,14.59ZM269.55,55.42c0-2.91-.48-5.64-1.43-8.18-.95-2.53-2.27-4.71-3.95-6.51-1.68-1.81-3.71-3.23-6.08-4.28-2.38-1.05-4.99-1.57-7.84-1.57s-5.45.52-7.8,1.57c-2.35,1.05-4.37,2.47-6.08,4.28s-3.03,3.98-3.95,6.51c-.92,2.54-1.38,5.26-1.38,8.18s.48,5.85,1.43,8.41c.95,2.57,2.27,4.77,3.95,6.61,1.68,1.84,3.69,3.28,6.04,4.33,2.34,1.05,4.94,1.57,7.8,1.57s5.45-.52,7.8-1.57c2.34-1.05,4.37-2.49,6.08-4.33,1.71-1.84,3.04-4.04,3.99-6.61.95-2.57,1.43-5.37,1.43-8.41Z"/>
    <path class="st1" d="M340.48,89.37l-27.1-44.02h-.29l.38,44.02h-15.78V22.05h18.54l27,43.92h.28l-.38-43.92h15.78v67.31h-18.44Z"/>
    <path class="st1" d="M396.38,89.37h-6.85V28.14h-22.53v-6.08h51.91v6.08h-22.53v61.23Z"/>
    <path class="st1" d="M435.84,83.28h36.03v6.08h-42.88V22.05h41.74v6.08h-34.89v23.1h32.61v6.08h-32.61v25.96Z"/>
    <path class="st1" d="M541.94,78.43c-1.14,1.71-2.52,3.33-4.14,4.85-1.62,1.52-3.49,2.87-5.61,4.03-2.12,1.16-4.47,2.08-7.04,2.75-2.57.67-5.37,1.01-8.41,1.01-5.07,0-9.76-.89-14.07-2.66-4.31-1.77-8.02-4.23-11.12-7.37-3.11-3.14-5.53-6.86-7.27-11.17-1.74-4.31-2.61-9.03-2.61-14.17s.89-9.85,2.66-14.17c1.77-4.31,4.23-8.03,7.37-11.17,3.14-3.14,6.85-5.59,11.12-7.37,4.28-1.77,8.92-2.66,13.93-2.66,2.47,0,4.9.26,7.27.77,2.38.52,4.61,1.24,6.7,2.17,2.09.93,3.99,2.06,5.7,3.36,1.71,1.31,3.14,2.79,4.28,4.43l-5.7,4.18c-.7-1.08-1.63-2.15-2.8-3.23-1.17-1.08-2.55-2.03-4.14-2.85-1.58-.82-3.31-1.49-5.18-2-1.87-.51-3.88-.76-6.04-.76-4.37,0-8.29.79-11.74,2.37-3.46,1.58-6.39,3.71-8.79,6.4-2.41,2.69-4.25,5.8-5.51,9.34-1.27,3.54-1.9,7.27-1.9,11.18s.65,7.64,1.95,11.18c1.3,3.54,3.15,6.65,5.56,9.33,2.41,2.69,5.34,4.82,8.79,6.4,3.45,1.58,7.34,2.37,11.65,2.37,3.87,0,7.54-.79,11.03-2.38,3.49-1.58,6.4-4.12,8.75-7.61l5.32,3.42Z"/>
    <path class="st1" d="M553.73,22.05h6.85v29.19h36.7v-29.19h6.85v67.31h-6.85v-31.85h-36.7v31.85h-6.85V22.05Z"/>
  </g>
  <g>
    <rect class="st1" x="53.42" y="2.57" width="21.32" height="101.28"/>
    <polygon class="st0" points="23.56 100.47 8.48 85.39 40.66 53.21 8.48 21.03 23.56 5.95 70.81 53.21 23.56 100.47"/>
  </g>
</svg>